<?xml version="1.0" encoding="UTF-8"?>
<svg version="1.1" xmlns="http://www.w3.org/2000/svg" width="200" height="200">
<path d="M0 0 C-0.54451639 8.22147429 -1.87711805 16.12882497 -3.5625 24.1875 C-3.79646484 25.33025391 -4.03042969 26.47300781 -4.27148438 27.65039062 C-4.84233371 30.43473738 -5.41858235 33.21784449 -6 36 C7.52171845 34.60407529 19.45390337 31.08330437 31.6328125 24.91796875 C34.24977606 23.90313965 36.21763339 23.82672094 39 24 C40.09716748 38.45822928 35.25347324 50.20033776 29 63 C29.86882812 62.6390625 30.73765625 62.278125 31.6328125 61.90625 C32.78523437 61.4421875 33.93765625 60.978125 35.125 60.5 C36.26195312 60.0359375 37.39890625 59.571875 38.5703125 59.09375 C41.9471645 58.01684959 44.48614728 57.78639193 48 58 C48.59032308 75.62223721 45.48171003 87.55173983 33.16015625 100.7578125 C30.80235763 103.20514778 28.44206474 105.63671154 26 108 C33.13502944 110.99671237 40.42400993 112.4996986 48 114 C49.37887814 118.48135394 48.5991064 120.75175529 46.5 124.875 C42.75221661 131.82790132 39.25586126 136.54866998 31.99609375 139.90625 C25.33193654 143.05491275 25.33193654 143.05491275 20 148 C18.23414632 154.15877149 19.24032153 160.51314461 19.89550781 166.78369141 C20.03109838 169.6596054 19.56225479 171.5780138 18 174 C10.77920099 176.406933 4.21236972 175.04593684 -2.875 172.6875 C-3.51727539 172.47464355 -4.15955078 172.26178711 -4.82128906 172.04248047 C-7.62904387 171.05172516 -9.8411141 170.13356892 -12.1328125 168.20703125 C-12.74898437 167.80871094 -13.36515625 167.41039062 -14 167 C-16.50265836 167.58505748 -16.50265836 167.58505748 -19 169 C-19.92039062 169.42539063 -20.84078125 169.85078125 -21.7890625 170.2890625 C-23.68595922 171.18264195 -25.58178819 172.07849139 -27.4765625 172.9765625 C-30 174 -30 174 -33 174 C-32.979375 175.27875 -32.95875 176.5575 -32.9375 177.875 C-32.875 181.75 -32.875 181.75 -34 184 C-37.47914941 184.02887814 -40.95826831 184.04675687 -44.4375 184.0625 C-45.43072266 184.07087891 -46.42394531 184.07925781 -47.44726562 184.08789062 C-48.39150391 184.09111328 -49.33574219 184.09433594 -50.30859375 184.09765625 C-51.18314209 184.10289307 -52.05769043 184.10812988 -52.95874023 184.11352539 C-55 184 -55 184 -56 183 C-56.14115161 180.32941149 -56.04247107 177.67567762 -56 175 C-57.134375 174.9175 -58.26875 174.835 -59.4375 174.75 C-66.25678475 173.90363487 -72.27814701 170.69151806 -78 167 C-78.47308594 167.33773437 -78.94617188 167.67546875 -79.43359375 168.0234375 C-86.58846928 172.84914302 -93.34518678 174.51928879 -102 174 C-102.99 173.67 -103.98 173.34 -105 173 C-104.38955672 165.36945905 -102.20378179 158.29810526 -100 151 C-100.66 151.33 -101.32 151.66 -102 152 C-106.2606505 152.34432723 -110.53192324 152.46774237 -114.8034668 152.61254883 C-116.92619896 152.68710309 -119.04785543 152.77777627 -121.16992188 152.86914062 C-122.51819377 152.91766051 -123.86650069 152.96521846 -125.21484375 153.01171875 C-126.44323975 153.05772217 -127.67163574 153.10372559 -128.93725586 153.15112305 C-132 153 -132 153 -135 151 C-135.53321999 147.18372476 -134.7416894 144.95381911 -132.7265625 141.7421875 C-132.23575195 140.95626221 -131.74494141 140.17033691 -131.23925781 139.3605957 C-130.4402002 138.13022583 -130.4402002 138.13022583 -129.625 136.875 C-128.81820801 135.61272583 -128.81820801 135.61272583 -127.99511719 134.32495117 C-123.5864543 127.57637554 -118.74271163 121.65377583 -113 116 C-119.04760742 113.19078881 -124.7972457 111.9754992 -131.37890625 110.84375 C-134.96988091 110.00701804 -137.78719383 108.7821421 -141 107 C-139.84869292 97.01600888 -129.39844238 88.99797241 -122 83 C-120.67301885 81.991586 -119.34160816 80.98887073 -118 80 C-119.2941579 76.39529677 -120.84609871 73.70399639 -123.1875 70.6875 C-129.92279458 61.32586414 -135.43972153 49.65262059 -135 38 C-134 37 -134 37 -131.7890625 36.8671875 C-118.85022878 36.89913524 -105.92653145 37.47409913 -93 38 C-93.12117188 37.11739502 -93.24234375 36.23479004 -93.3671875 35.32543945 C-93.81711806 32.03640383 -94.26405012 28.74698915 -94.70898438 25.45727539 C-94.90180218 24.03621462 -95.09579789 22.61531315 -95.29101562 21.19458008 C-95.57214628 19.14705962 -95.84897213 17.09899509 -96.125 15.05078125 C-96.37636719 13.20480347 -96.37636719 13.20480347 -96.6328125 11.3215332 C-96.94407071 8.50592948 -97.07508639 5.82747187 -97 3 C-80.00702524 3.32007315 -63.79830858 9.03455492 -50 19 C-49.46375 18.5875 -48.9275 18.175 -48.375 17.75 C-34.46274307 7.49886331 -17.67739724 -1.1791025 0 0 Z " fill="#83BCE5" transform="translate(146,8)"/>
<path d="M0 0 C11.9003059 8.04719826 19.80162754 22.54979847 22.63378906 36.47802734 C25.88130123 58.84256111 22.72997594 85.319548 10.11328125 104.51171875 C9 106 9 106 7 108 C3.33773088 107.60761402 0.22219876 105.68433117 -3 104 C-2.175 104.763125 -1.35 105.52625 -0.5 106.3125 C2 109 2 109 2 112 C0.375 112.8125 0.375 112.8125 -2 113 C-4.24609835 111.53181864 -6.02378677 109.84147142 -8 108 C-8.99 108.495 -8.99 108.495 -10 109 C-8.35 110.32 -6.7 111.64 -5 113 C-5.495 114.485 -5.495 114.485 -6 116 C-10.51478398 115.46884894 -13.34666857 113.63379708 -17 111 C-16.505 111.78375 -16.01 112.5675 -15.5 113.375 C-14 116 -14 116 -14 118 C-42.12571959 118.51977716 -42.12571959 118.51977716 -50.7421875 110.34765625 C-65.48961286 94.87235367 -65.48920976 72.76254302 -65.09326172 52.75244141 C-64.88958065 46.74118404 -64.14023064 40.90965253 -63 35 C-62.87641113 34.3498291 -62.75282227 33.6996582 -62.62548828 33.02978516 C-60.23080339 20.89381238 -56.38993773 8.15897164 -46.1171875 0.3671875 C-45.41851562 -0.08398438 -44.71984375 -0.53515625 -44 -1 C-43.01386719 -1.64582031 -43.01386719 -1.64582031 -42.0078125 -2.3046875 C-30.00995527 -8.49575262 -11.28084776 -6.69899083 0 0 Z " fill="#E1DFD5" transform="translate(123,59)"/>
<path d="M0 0 C-0.54451639 8.22147429 -1.87711805 16.12882497 -3.5625 24.1875 C-3.79646484 25.33025391 -4.03042969 26.47300781 -4.27148438 27.65039062 C-4.84233371 30.43473738 -5.41858235 33.21784449 -6 36 C7.52171845 34.60407529 19.45390337 31.08330437 31.6328125 24.91796875 C34.24977606 23.90313965 36.21763339 23.82672094 39 24 C40.09716748 38.45822928 35.25347324 50.20033776 29 63 C29.86882812 62.6390625 30.73765625 62.278125 31.6328125 61.90625 C32.78523437 61.4421875 33.93765625 60.978125 35.125 60.5 C36.26195312 60.0359375 37.39890625 59.571875 38.5703125 59.09375 C41.9471645 58.01684959 44.48614728 57.78639193 48 58 C48.59032308 75.62223721 45.48171003 87.55173983 33.16015625 100.7578125 C30.80235763 103.20514778 28.44206474 105.63671154 26 108 C33.13502944 110.99671237 40.42400993 112.4996986 48 114 C49.37887814 118.48135394 48.5991064 120.75175529 46.5 124.875 C42.75221661 131.82790132 39.25586126 136.54866998 31.99609375 139.90625 C25.33193654 143.05491275 25.33193654 143.05491275 20 148 C18.23414632 154.15877149 19.24032153 160.51314461 19.89550781 166.78369141 C20.03109838 169.6596054 19.56225479 171.5780138 18 174 C10.77920099 176.406933 4.21236972 175.04593684 -2.875 172.6875 C-3.51727539 172.47464355 -4.15955078 172.26178711 -4.82128906 172.04248047 C-7.62904387 171.05172516 -9.8411141 170.13356892 -12.1328125 168.20703125 C-12.74898437 167.80871094 -13.36515625 167.41039062 -14 167 C-16.50265836 167.58505748 -16.50265836 167.58505748 -19 169 C-19.92039062 169.42539063 -20.84078125 169.85078125 -21.7890625 170.2890625 C-23.68595922 171.18264195 -25.58178819 172.07849139 -27.4765625 172.9765625 C-30 174 -30 174 -33 174 C-32.979375 175.27875 -32.95875 176.5575 -32.9375 177.875 C-32.875 181.75 -32.875 181.75 -34 184 C-37.47914941 184.02887814 -40.95826831 184.04675687 -44.4375 184.0625 C-45.43072266 184.07087891 -46.42394531 184.07925781 -47.44726562 184.08789062 C-48.39150391 184.09111328 -49.33574219 184.09433594 -50.30859375 184.09765625 C-51.18314209 184.10289307 -52.05769043 184.10812988 -52.95874023 184.11352539 C-55 184 -55 184 -56 183 C-56.14115161 180.32941149 -56.04247107 177.67567762 -56 175 C-57.134375 174.9175 -58.26875 174.835 -59.4375 174.75 C-66.25678475 173.90363487 -72.27814701 170.69151806 -78 167 C-78.47308594 167.33773437 -78.94617188 167.67546875 -79.43359375 168.0234375 C-86.58846928 172.84914302 -93.34518678 174.51928879 -102 174 C-102.99 173.67 -103.98 173.34 -105 173 C-104.38955672 165.36945905 -102.20378179 158.29810526 -100 151 C-100.66 151.33 -101.32 151.66 -102 152 C-106.2606505 152.34432723 -110.53192324 152.46774237 -114.8034668 152.61254883 C-116.92619896 152.68710309 -119.04785543 152.77777627 -121.16992188 152.86914062 C-122.51819377 152.91766051 -123.86650069 152.96521846 -125.21484375 153.01171875 C-126.44323975 153.05772217 -127.67163574 153.10372559 -128.93725586 153.15112305 C-132 153 -132 153 -135 151 C-135.53321999 147.18372476 -134.7416894 144.95381911 -132.7265625 141.7421875 C-132.23575195 140.95626221 -131.74494141 140.17033691 -131.23925781 139.3605957 C-130.4402002 138.13022583 -130.4402002 138.13022583 -129.625 136.875 C-128.81820801 135.61272583 -128.81820801 135.61272583 -127.99511719 134.32495117 C-123.5864543 127.57637554 -118.74271163 121.65377583 -113 116 C-119.04760742 113.19078881 -124.7972457 111.9754992 -131.37890625 110.84375 C-134.96988091 110.00701804 -137.78719383 108.7821421 -141 107 C-139.84869292 97.01600888 -129.39844238 88.99797241 -122 83 C-120.67301885 81.991586 -119.34160816 80.98887073 -118 80 C-119.2941579 76.39529677 -120.84609871 73.70399639 -123.1875 70.6875 C-129.92279458 61.32586414 -135.43972153 49.65262059 -135 38 C-134 37 -134 37 -131.7890625 36.8671875 C-118.85022878 36.89913524 -105.92653145 37.47409913 -93 38 C-93.12117188 37.11739502 -93.24234375 36.23479004 -93.3671875 35.32543945 C-93.81711806 32.03640383 -94.26405012 28.74698915 -94.70898438 25.45727539 C-94.90180218 24.03621462 -95.09579789 22.61531315 -95.29101562 21.19458008 C-95.57214628 19.14705962 -95.84897213 17.09899509 -96.125 15.05078125 C-96.37636719 13.20480347 -96.37636719 13.20480347 -96.6328125 11.3215332 C-96.94407071 8.50592948 -97.07508639 5.82747187 -97 3 C-80.00702524 3.32007315 -63.79830858 9.03455492 -50 19 C-49.46375 18.5875 -48.9275 18.175 -48.375 17.75 C-34.46274307 7.49886331 -17.67739724 -1.1791025 0 0 Z M-46.7890625 23.84765625 C-49.91708955 25.47798837 -51.6645992 24.97844222 -55 24 C-57.17578125 22.6171875 -57.17578125 22.6171875 -59.3125 20.875 C-63.8489919 17.53630717 -68.44205284 15.30305764 -73.625 13.1875 C-74.68134644 12.7531665 -74.68134644 12.7531665 -75.7590332 12.31005859 C-80.43911852 10.454624 -85.09454395 9.12990842 -90 8 C-89.60041337 16.5700816 -89.02655366 24.64046614 -87 33 C-86.505 37.95 -86.505 37.95 -86 43 C-99.86 43 -113.72 43 -128 43 C-126.1643416 55.84960877 -120.32006687 66.88858804 -111.69140625 76.59765625 C-110 79 -110 79 -109.9921875 81.1015625 C-111.31168163 83.58712122 -112.84618844 84.7296208 -115.125 86.375 C-115.93710938 86.97957031 -116.74921875 87.58414063 -117.5859375 88.20703125 C-118.38257813 88.79871094 -119.17921875 89.39039062 -120 90 C-124.55296293 93.62617404 -128.49983891 97.33311855 -132 102 C-132 102.66 -132 103.32 -132 104 C-130.94941406 104.17015625 -129.89882812 104.3403125 -128.81640625 104.515625 C-111.18363972 107.50095587 -111.18363972 107.50095587 -107 111 C-106.0078125 113.29296875 -106.0078125 113.29296875 -106 116 C-107.73828125 118.62109375 -107.73828125 118.62109375 -110.3125 121.4375 C-111.23984504 122.48591139 -112.16287279 123.53815396 -113.08203125 124.59375 C-113.56236816 125.14417969 -114.04270508 125.69460937 -114.53759766 126.26171875 C-117.01534929 129.20689265 -119.26359464 132.30719648 -121.5 135.4375 C-121.92063721 136.0162085 -122.34127441 136.59491699 -122.7746582 137.19116211 C-125.01383252 140.34138874 -126.74181349 143.34168596 -128 147 C-126.89054705 148.33978955 -126.89054705 148.33978955 -124.07250977 148.06591797 C-122.79174561 148.04158691 -121.51098145 148.01725586 -120.19140625 147.9921875 C-118.79102288 147.97467043 -117.39063179 147.95776222 -115.99023438 147.94140625 C-113.77346693 147.91041627 -111.55708029 147.87488685 -109.34057617 147.82861328 C-107.20747046 147.78636416 -105.07481529 147.76285851 -102.94140625 147.7421875 C-101.65951416 147.7201123 -100.37762207 147.69803711 -99.05688477 147.67529297 C-97.54372681 147.83602295 -97.54372681 147.83602295 -96 148 C-94 151 -94 151 -94.2421875 153.5234375 C-94.45101562 154.46445313 -94.65984375 155.40546875 -94.875 156.375 C-95.6662275 160.01064028 -96.12190762 163.27504502 -96 167 C-94.22739369 166.54857225 -92.4569632 166.08859477 -90.6875 165.625 C-89.70136719 165.36976563 -88.71523437 165.11453125 -87.69921875 164.8515625 C-84.8194184 164.08086826 -84.8194184 164.08086826 -82 162 C-83.09452906 158.9900451 -84.33666076 156.44240561 -86 153.6875 C-88.2233745 149.92103722 -89.10198297 146.2655809 -90 142 C-90.68707031 141.89042969 -91.37414062 141.78085938 -92.08203125 141.66796875 C-92.98308594 141.50941406 -93.88414063 141.35085937 -94.8125 141.1875 C-96.15248047 140.96126953 -96.15248047 140.96126953 -97.51953125 140.73046875 C-100.21982025 139.93526553 -101.26480552 139.17309845 -103 137 C-105.09036153 132.81927694 -104.43167355 127.55385199 -104 123 C-102.0191169 119.19060943 -100.87643265 118.31099223 -96.8515625 116.8828125 C-95.91054687 116.59148437 -94.96953125 116.30015625 -94 116 C-93.96036133 115.30664551 -93.92072266 114.61329102 -93.87988281 113.89892578 C-91.03167505 66.30553148 -91.03167505 66.30553148 -76 51 C-66.51397667 42.68577955 -54.82673365 40.3458448 -42.5 40.75 C-29.81039329 41.65640048 -18.88562681 45.87290071 -10.09765625 55.39453125 C-0.36874604 67.47867112 4.77926781 80.77315678 5.31640625 96.2734375 C5.37924805 98.00400391 5.37924805 98.00400391 5.44335938 99.76953125 C5.48267578 100.95933594 5.52199219 102.14914063 5.5625 103.375 C5.60568359 104.58800781 5.64886719 105.80101563 5.69335938 107.05078125 C5.79905513 110.03375032 5.90115321 113.01679742 6 116 C6.62648437 116.24234375 7.25296875 116.4846875 7.8984375 116.734375 C8.71570313 117.06953125 9.53296875 117.4046875 10.375 117.75 C11.18710938 118.07484375 11.99921875 118.3996875 12.8359375 118.734375 C15.37902856 120.22167014 16.01970301 121.25831377 17 124 C17.49091901 128.61463874 16.93113465 131.36135009 14 135 C10.19623228 137.11320429 6.26796688 137.41891531 2 138 C1.70867187 138.90621094 1.41734375 139.81242188 1.1171875 140.74609375 C-1.20028826 147.63293209 -3.45079978 153.42061154 -7.9609375 159.23046875 C-8.30382812 159.81441406 -8.64671875 160.39835938 -9 161 C-8.67 161.99 -8.34 162.98 -8 164 C-5.8075743 164.9944551 -5.8075743 164.9944551 -3.1875 165.625 C-2.31480469 165.86476562 -1.44210938 166.10453125 -0.54296875 166.3515625 C0.29621094 166.56554687 1.13539063 166.77953125 2 167 C2.93392578 167.29003906 2.93392578 167.29003906 3.88671875 167.5859375 C6.93046086 168.18230841 9.90858736 168.05945024 13 168 C12.93546631 167.01773438 12.93546631 167.01773438 12.86962891 166.015625 C11.92854619 147.82350033 11.92854619 147.82350033 15.29248047 143.23828125 C19.03805573 140.21182918 23.55910656 138.73774091 28 137 C33.63318354 133.17499883 38.17537995 128.24675589 41 122 C41 121.01 41 120.02 41 119 C39.90300781 118.76925781 38.80601562 118.53851563 37.67578125 118.30078125 C36.22113727 117.97231325 34.76672174 117.64283235 33.3125 117.3125 C32.59126953 117.16361328 31.87003906 117.01472656 31.12695312 116.86132812 C26.12230697 115.69586258 23.27704542 114.17932944 20 110 C19.1875 107.6875 19.1875 107.6875 19 106 C19.6290625 105.47792969 20.258125 104.95585938 20.90625 104.41796875 C31.78951396 95.05901736 40.34419538 84.53285621 41.75 69.875 C41.84897698 68.25087777 41.93817641 66.62596042 42 65 C33.89654389 65.49612997 26.59474067 68.320085 19 71 C21.01916969 65.63138411 23.22543053 60.4649624 25.875 55.375 C28.37459672 50.47783092 30.44892673 45.51695862 32.375 40.375 C32.63780762 39.67552246 32.90061523 38.97604492 33.17138672 38.25537109 C34.53611639 34.72083706 34.53611639 34.72083706 35 31 C29.25796932 32.62734971 23.65595233 34.47806021 18.0625 36.5625 C9.76134082 39.54769007 1.93684608 40.90128463 -6.83984375 41.546875 C-8.57609009 41.67594238 -8.57609009 41.67594238 -10.34741211 41.80761719 C-11.22276611 41.87110352 -12.09812012 41.93458984 -13 42 C-12.81824219 41.08710205 -12.63648438 40.1742041 -12.44921875 39.23364258 C-11.7745296 35.833166 -11.10410702 32.43190502 -10.43652344 29.0300293 C-10.14720406 27.56029333 -9.85620804 26.09088635 -9.56347656 24.62182617 C-9.1420242 22.50524653 -8.72669614 20.38754128 -8.3125 18.26953125 C-8.06113281 16.99698486 -7.80976563 15.72443848 -7.55078125 14.41333008 C-7.08382177 11.51946459 -6.88294314 8.91910547 -7 6 C-20.59433457 6 -36.60534388 15.4470075 -46.7890625 23.84765625 Z M-67 50 C-67.68707031 50.41636719 -68.37414062 50.83273438 -69.08203125 51.26171875 C-80.07510248 59.27005553 -84.38748176 75.03633405 -86.67211914 87.80053711 C-90.11185145 110.87466101 -90.68866795 138.3224604 -76.609375 158.0625 C-71.49604619 164.21835216 -66.33955613 167.99171689 -58.26953125 168.84326172 C-54.17911081 169.12575418 -50.09805026 169.10341755 -46 169.0625 C-45.12988281 169.05798828 -44.25976562 169.05347656 -43.36328125 169.04882812 C-41.24215707 169.0371736 -39.1210689 169.01924357 -37 169 C-38.39759905 165.45481116 -38.39759905 165.45481116 -40 162 C-39.55269531 162.37253906 -39.10539062 162.74507813 -38.64453125 163.12890625 C-34.81788032 166.28767572 -34.81788032 166.28767572 -30.0625 166.8125 C-29.0415625 166.4103125 -29.0415625 166.4103125 -28 166 C-29.29299694 163.11562221 -30.65941363 161.12780579 -33 159 C-30.69759223 160.06897504 -28.95987369 161.03624312 -27.0625 162.75 C-26.381875 163.1625 -25.70125 163.575 -25 164 C-22.26601865 163.29042763 -22.26601865 163.29042763 -20 162 C-21.98 159.69 -23.96 157.38 -26 155 C-24.9275 155.680625 -23.855 156.36125 -22.75 157.0625 C-19.95322232 158.6475249 -19.95322232 158.6475249 -16.8125 159.0625 C-7.24371017 153.45320941 -4.6456938 138.23963052 -2.08203125 128.51953125 C-0.15390647 119.92896594 0.30755907 111.54916853 0.375 102.75 C0.39578613 101.13508667 0.39578613 101.13508667 0.41699219 99.48754883 C0.35680542 89.13780017 -1.54459038 79.45969843 -6.625 70.375 C-6.97127441 69.74674316 -7.31754883 69.11848633 -7.67431641 68.47119141 C-13.15418292 58.88694165 -19.55689596 51.98465019 -30 48 C-31.31677734 47.45472656 -31.31677734 47.45472656 -32.66015625 46.8984375 C-43.02073608 44.11138094 -57.82896314 44.03612338 -67 50 Z " fill="#202120" transform="translate(146,8)"/>
<path d="M0 0 C1.18529297 -0.00322266 2.37058594 -0.00644531 3.59179688 -0.00976562 C14.5232529 0.05619489 24.47482239 0.78114753 34.0625 6.3125 C34.1875 12.0625 34.1875 12.0625 33.0625 14.3125 C31.33323126 14.00056536 29.60408956 13.68792638 27.875 13.375 C26.43060547 13.11396484 26.43060547 13.11396484 24.95703125 12.84765625 C23.20620691 12.52395458 21.45898116 12.17827983 19.72094727 11.79174805 C5.86086432 9.29314002 -9.40832416 10.89925694 -22.9375 14.3125 C-24.93437349 14.66407842 -26.93366386 15.00306204 -28.9375 15.3125 C-30.37485246 12.43779507 -30.31922649 10.49355412 -29.9375 7.3125 C-23.16646346 -0.85944065 -9.59415569 -0.13000211 0 0 Z " fill="#272A2A" transform="translate(98.9375,67.6875)"/>
<path d="M0 0 C4.38544865 2.19272433 7.23315916 4.38658225 9 9 C9.71496978 13.65813646 10.104579 18.01314721 7.7578125 22.234375 C4.75709661 25.84717722 2.55589269 27.69206112 -2.26953125 28.2734375 C-9.98236748 28.58147704 -9.98236748 28.58147704 -13.5 25.75 C-17.93633044 20.87003651 -18.49944514 17.19399327 -18.38671875 10.69921875 C-17.77277065 6.41398505 -16.21445287 4.84917413 -13 2 C-8.74770836 -0.5286261 -4.8379343 -0.68033451 0 0 Z " fill="#F9F9F9" transform="translate(122,89)"/>
<path d="M0 0 C3.86557442 3.29710759 5.01457858 5.65307514 5.5 10.75 C5.32838038 14.70471303 4.3651561 17.49088924 2.125 20.8125 C-1.62265829 24.21946208 -5.55659326 24.37647347 -10.4296875 24.23828125 C-14.46398125 23.53582435 -16.14768183 21.81954311 -18.875 18.8125 C-20.32649845 14.45800465 -20.5173951 10.35868074 -19.875 5.8125 C-15.90762805 -1.84651921 -7.52756704 -3.10921247 0 0 Z " fill="#FAFAFA" transform="translate(88.875,90.1875)"/>
<path d="M0 0 C3.77702297 2.63513231 6.60374735 5.7074947 8.6875 9.875 C9.40887263 16.89951382 9.18291786 23.17185794 4.6875 28.875 C-0.3732459 33.09228825 -4.91322922 33.56513219 -11.43359375 33.3203125 C-15.76311492 32.65061723 -18.44527949 31.16978848 -21.3125 27.875 C-24.83237343 22.19778478 -25.16507507 16.45339175 -24.3125 9.875 C-22.99236036 5.6081201 -20.71777581 3.19111513 -17.1875 0.4375 C-11.64834565 -2.3261211 -5.73516407 -1.94779157 0 0 Z M-19.94921875 7.6796875 C-22.4684029 11.736368 -21.91971394 16.27085034 -21.3125 20.875 C-19.28758308 24.92483384 -17.12065002 27.47346395 -13.3125 29.875 C-8.8355082 30.61752547 -4.63409576 30.42087651 -0.4375 28.6875 C4.16526661 24.86781757 4.16526661 24.86781757 6.07421875 19.31640625 C6.25603927 14.69565719 6.02800609 11.58123485 4 7.375 C0.3244874 3.40147286 -2.33056759 1.71938323 -7.75 1.4375 C-13.0949137 1.62426071 -16.37151428 3.73482004 -19.94921875 7.6796875 Z " fill="#2C2C2A" transform="translate(125.3125,87.125)"/>
<path d="M0 0 C4.47592525 1.99818091 7.06445224 4.59958291 9.30078125 9.015625 C10.90636419 13.57225145 10.91408391 17.76341172 9.08203125 22.24609375 C6.52451402 26.75692511 4.1047664 29.48747662 -1 31 C-5.64449514 31.68156737 -9.97463866 32.11358835 -14.1953125 29.79296875 C-18.18768917 26.49382903 -20.70617287 23.45311486 -21.3359375 18.1953125 C-21.46932682 7.71091205 -21.46932682 7.71091205 -17 3 C-11.55048013 -0.89518946 -6.48900859 -0.774807 0 0 Z M-16.609375 7.80078125 C-19.02209604 11.6164047 -18.52420256 15.63636792 -18 20 C-16.38322537 23.79942039 -14.45334416 25.8001829 -11 28 C-6.06267609 28.90436131 -2.01105615 28.4874735 2.5 26.3125 C6.39763645 22.70718629 6.8761729 20.30018458 7.375 15.0625 C7.26168312 10.78074062 5.80341422 8.27064992 3 5 C-3.64221087 0.91998368 -11.44655824 2.02394016 -16.609375 7.80078125 Z " fill="#2E2E2C" transform="translate(87,86)"/>
<path d="M0 0 C0.68571075 0.00104736 1.37142151 0.00209473 2.07791138 0.00317383 C12.50723471 0.03612443 22.08057947 0.85897456 31.9375 4.4375 C31.9375 5.4275 31.9375 6.4175 31.9375 7.4375 C31.21691406 7.293125 30.49632812 7.14875 29.75390625 7 C11.53949687 3.85129058 -7.03545638 4.56962857 -25.0625 8.4375 C-24.7325 6.7875 -24.4025 5.1375 -24.0625 3.4375 C-16.05006766 0.12170747 -8.58967804 -0.07282757 0 0 Z " fill="#81B9E1" transform="translate(98.0625,70.5625)"/>
<path d="M0 0 C0 0.99 0 1.98 0 3 C-8.66722349 6.72783806 -16.37250558 8.49325895 -25.8125 8.5 C-26.67061279 8.50580078 -27.52872559 8.51160156 -28.4128418 8.51757812 C-35.25530499 8.38625746 -41.83974363 7.08012819 -48 4 C-47.67 3.01 -47.34 2.02 -47 1 C-46.10474609 1.32484375 -46.10474609 1.32484375 -45.19140625 1.65625 C-31.94833569 5.90662629 -19.311296 4.67435735 -6.1953125 0.875 C-3 0 -3 0 0 0 Z " fill="#2F2F2C" transform="translate(123,151)"/>
<path d="M0 0 C0.99 0 1.98 0 3 0 C3.07347656 1.42892578 3.07347656 1.42892578 3.1484375 2.88671875 C3.22320312 4.14097656 3.29796875 5.39523438 3.375 6.6875 C3.44460937 7.92886719 3.51421875 9.17023438 3.5859375 10.44921875 C3.96863094 13.73099549 4.42297558 16.10878856 6 19 C6.99 19.33 7.98 19.66 9 20 C10.10789535 15.94691667 10.33731267 11.92888626 10.5625 7.75 C10.60568359 7.00492188 10.64886719 6.25984375 10.69335938 5.4921875 C10.79896725 3.661651 10.89994201 1.83084824 11 0 C11.99 0 12.98 0 14 0 C14.10829314 2.89684158 14.18743954 5.78961019 14.25 8.6875 C14.30027344 9.91243164 14.30027344 9.91243164 14.3515625 11.16210938 C14.41839428 15.28897199 14.33747299 17.44512336 12.14453125 21.05078125 C10 23 10 23 7.4375 23.5 C5 23 5 23 3.3125 22 C-0.96698028 15.47888719 -0.22388846 7.46294876 0 0 Z " fill="#2D2D2A" transform="translate(93,124)"/>
<path d="M0 0 C1.66519519 0.34060811 3.33157466 0.67558396 5 1 C5 1.33 5 1.66 5 2 C4.32453125 2.08636719 3.6490625 2.17273438 2.953125 2.26171875 C-1.20453457 2.91661021 -4.23659322 3.41835674 -7.625 6 C-9.62583533 10.36545889 -9.65252852 14.27693641 -9 19 C-7.38727433 22.68623011 -6.369675 23.75355 -3 26 C-0.9507906 26.45139459 -0.9507906 26.45139459 1.1875 26.625 C2.445625 26.74875 3.70375 26.8725 5 27 C5 27.33 5 27.66 5 28 C3.02 28 1.04 28 -1 28 C-1 28.66 -1 29.32 -1 30 C-3.86009035 29.9158797 -5.54648827 29.43181261 -7.6328125 27.4453125 C-12.4855156 21.79554705 -13.3532313 18.50132925 -13.28125 10.98828125 C-12.9054694 6.99561236 -11.74835565 4.89691541 -9 2 C-5.64374128 -0.60110051 -4.00143644 -1.50053866 0 0 Z " fill="#353533" transform="translate(79,87)"/>
<path d="M0 0 C4.29 0 8.58 0 13 0 C13 2.31 13 4.62 13 7 C9.04 6.67 5.08 6.34 1 6 C0.67 4.02 0.34 2.04 0 0 Z " fill="#CFCDC4" transform="translate(94,182)"/>
<path d="M0 0 C5 1 5 1 7 3 C6.92057478 7.28896211 6.65959628 9.32304592 3.625 12.4375 C1 14 1 14 -2 14 C-1.34 9.38 -0.68 4.76 0 0 Z " fill="#D3D1C8" transform="translate(151,129)"/>
<path d="M0 0 C3.29158865 -0.05905417 6.58303756 -0.09394375 9.875 -0.125 C10.7928125 -0.14175781 11.710625 -0.15851563 12.65625 -0.17578125 C19.00812606 -0.22051277 24.82610036 0.51148437 31 2 C31 2.66 31 3.32 31 4 C23.91561644 4.11819618 16.98903903 3.65844024 9.9375 3 C8.88111328 2.90460938 7.82472656 2.80921875 6.73632812 2.7109375 C4.15720414 2.47753261 1.57847201 2.24048257 -1 2 C-0.67 1.34 -0.34 0.68 0 0 Z " fill="#222422" transform="translate(92,68)"/>
<path d="M0 0 C0 0.33 0 0.66 0 1 C5.445 1.495 5.445 1.495 11 2 C11 2.33 11 2.66 11 3 C10.44127197 3.01458252 9.88254395 3.02916504 9.30688477 3.04418945 C6.72479948 3.11960798 4.14387816 3.21594881 1.5625 3.3125 C0.24475586 3.34633789 0.24475586 3.34633789 -1.09960938 3.38085938 C-6.98344362 3.6196866 -12.69417164 4.2621839 -18 7 C-18.99 8.485 -18.99 8.485 -20 10 C-20.33 9.34 -20.66 8.68 -21 8 C-21.33 9.65 -21.66 11.3 -22 13 C-22.33 13 -22.66 13 -23 13 C-23.3125 10.25 -23.3125 10.25 -23 7 C-17.80079365 0.72509578 -7.73751859 -0.51583457 0 0 Z " fill="#3C4245" transform="translate(92,68)"/>
<path d="M0 0 C0.66 0 1.32 0 2 0 C3.04976964 3.14930893 3.10131595 5.38814456 3.0625 8.6875 C3.05347656 9.68136719 3.04445313 10.67523438 3.03515625 11.69921875 C3.02355469 12.45847656 3.01195312 13.21773437 3 14 C0.625 13.6875 0.625 13.6875 -2 13 C-4 10 -4 10 -3.8125 7.0625 C-2.99500936 3.98118913 -2.19567927 2.28350644 0 0 Z " fill="#D7D5CC" transform="translate(50,130)"/>
<path d="M0 0 C0.886875 0.495 1.77375 0.99 2.6875 1.5 C8.17663186 3.91567166 14.13140607 3.23827374 20 3 C20 3.99 20 4.98 20 6 C15.82141755 8.08929122 10.54876054 7.44618415 6 7 C3.24563226 5.95049881 1.40621591 4.7499752 -1 3 C-0.67 2.01 -0.34 1.02 0 0 Z " fill="#2F2F2C" transform="translate(68,118)"/>
<path d="M0 0 C1.66519519 0.34060811 3.33157466 0.67558396 5 1 C5 1.33 5 1.66 5 2 C4.32453125 2.08636719 3.6490625 2.17273438 2.953125 2.26171875 C-2.74614878 3.14162338 -2.74614878 3.14162338 -7.5625 6.125 C-9.42984615 9.85969229 -9.71809609 12.84191728 -10 17 C-10.33 17 -10.66 17 -11 17 C-11.144375 16.2575 -11.28875 15.515 -11.4375 14.75 C-11.88925129 12.08836576 -11.88925129 12.08836576 -12.8125 10.0625 C-13.13423533 6.52341138 -11.15079539 4.6601943 -9 2 C-5.64374128 -0.60110051 -4.00143644 -1.50053866 0 0 Z " fill="#3C3C3A" transform="translate(79,87)"/>
<path d="M0 0 C3.9492568 0.55105909 7.34920174 1.38935371 11 3 C11 3.99 11 4.98 11 6 C8.69 5.67 6.38 5.34 4 5 C4 7.64 4 10.28 4 13 C3.34 13 2.68 13 2 13 C-0.28571429 4.57142857 -0.28571429 4.57142857 0 0 Z " fill="#222626" transform="translate(62,24)"/>
<path d="M0 0 C0.66 0.33 1.32 0.66 2 1 C2 1.66 2 2.32 2 3 C-3.25278266 6.939587 -6.78996076 8.14750052 -13.25 8.0625 C-14.14203125 8.05347656 -15.0340625 8.04445313 -15.953125 8.03515625 C-16.62859375 8.02355469 -17.3040625 8.01195313 -18 8 C-18.33 7.01 -18.66 6.02 -19 5 C-18.29875 4.97421875 -17.5975 4.9484375 -16.875 4.921875 C-10.18655691 4.52202242 -5.85170248 3.19183771 0 0 Z " fill="#32322F" transform="translate(133,119)"/>
<path d="M0 0 C0.33 0.99 0.66 1.98 1 3 C-1.44978026 6.86311502 -3.54966162 8.8874154 -8 10 C-10.69165159 10.14535921 -13.29996307 10.09152668 -16 10 C-16 9.34 -16 8.68 -16 8 C-14.783125 7.731875 -13.56625 7.46375 -12.3125 7.1875 C-7.26853837 5.9220538 -3.51504841 3.88505351 0 0 Z " fill="#2B2B29" transform="translate(94,107)"/>
<path d="M0 0 C-0.1953125 1.828125 -0.1953125 1.828125 -1 4 C-3.1796875 5.484375 -3.1796875 5.484375 -5.875 6.75 C-7.20144531 7.39195313 -7.20144531 7.39195313 -8.5546875 8.046875 C-11 9 -11 9 -14 9 C-12.56759722 5.37640811 -10.97298034 4.06444274 -7.5625 2.25 C-6.78003906 1.82203125 -5.99757813 1.3940625 -5.19140625 0.953125 C-3 0 -3 0 0 0 Z " fill="#24282A" transform="translate(127,22)"/>
<path d="M0 0 C1.48034764 0.47550561 2.95925021 0.95551216 4.4375 1.4375 C5.26121094 1.70433594 6.08492187 1.97117187 6.93359375 2.24609375 C9 3 9 3 10 4 C10.04080783 5.99958364 10.04254356 8.00045254 10 10 C8.68 9.34 7.36 8.68 6 8 C6.33 7.01 6.66 6.02 7 5 C3.7 4.34 0.4 3.68 -3 3 C-2.01 2.67 -1.02 2.34 0 2 C0 1.34 0 0.68 0 0 Z " fill="#323536" transform="translate(123,70)"/>
<path d="M0 0 C2.125 0.375 2.125 0.375 4 1 C4 2.65 4 4.3 4 6 C2.35 6.33 0.7 6.66 -1 7 C-1.625 4.625 -1.625 4.625 -2 2 C-1.34 1.34 -0.68 0.68 0 0 Z " fill="#333331" transform="translate(80,99)"/>
<path d="M0 0 C0.66 0.33 1.32 0.66 2 1 C2.05399736 2.45792884 2.09279177 3.91642712 2.125 5.375 C2.14820312 6.18710938 2.17140625 6.99921875 2.1953125 7.8359375 C2 10 2 10 0 12 C-0.66 12 -1.32 12 -2 12 C-1.85962479 10.18706911 -1.71255111 8.3746557 -1.5625 6.5625 C-1.48128906 5.55316406 -1.40007812 4.54382813 -1.31640625 3.50390625 C-1 1 -1 1 0 0 Z " fill="#3C3C39" transform="translate(95,96)"/>
<path d="M0 0 C1.65 0.33 3.3 0.66 5 1 C4.67 2.65 4.34 4.3 4 6 C2.35 5.67 0.7 5.34 -1 5 C-0.67 3.35 -0.34 1.7 0 0 Z " fill="#232321" transform="translate(116,101)"/>
<path d="M0 0 C2.66753731 0.36793618 3.81998328 0.81998328 5.75 2.75 C7.21079991 5.37943983 7.24687966 7.0374441 7 10 C6.01 10 5.02 10 4 10 C3.566875 8.2984375 3.566875 8.2984375 3.125 6.5625 C2.75375 5.386875 2.3825 4.21125 2 3 C1.34 2.67 0.68 2.34 0 2 C0 1.34 0 0.68 0 0 Z " fill="#333330" transform="translate(123,144)"/>
<path d="M0 0 C0.99 0.33 1.98 0.66 3 1 C2.01 2.485 2.01 2.485 1 4 C0.60986284 5.9896995 0.26797351 7.99019869 0 10 C-0.99 9.67 -1.98 9.34 -3 9 C-2.25 2.25 -2.25 2.25 0 0 Z " fill="#474743" transform="translate(72,145)"/>
<path d="M0 0 C0.556875 0.144375 1.11375 0.28875 1.6875 0.4375 C4.11384195 1.02769128 6.54906345 1.523429 9 2 C9 2.33 9 2.66 9 3 C5.37 3.33 1.74 3.66 -2 4 C-1.34 2.68 -0.68 1.36 0 0 Z " fill="#444442" transform="translate(75,86)"/>
</svg>
