<?xml version="1.0" encoding="UTF-8"?>
<svg version="1.1" xmlns="http://www.w3.org/2000/svg" width="256" height="243">
<path d="M0 0 C7.75257178 1.41568702 14.61372824 5.11979048 21.59375 8.65625 C22.57166504 9.14915527 23.54958008 9.64206055 24.55712891 10.14990234 C35.94357939 15.92067739 47.19478815 21.91912582 58.31567383 28.18554688 C63.85984998 31.29474186 69.49364143 34.18521692 75.20727539 36.9699707 C78.32782774 38.4951775 81.30311494 40.09727415 84.23828125 41.9453125 C88.02848011 43.87791681 88.68119833 43.80027309 92.59375 42.65625 C94.34948939 41.87635722 96.07667812 41.03035735 97.77734375 40.13671875 C98.77652832 39.61489014 99.77571289 39.09306152 100.80517578 38.55541992 C101.86978027 37.99056885 102.93438477 37.42571777 104.03125 36.84375 C105.69003174 35.97230347 105.69003174 35.97230347 107.38232422 35.08325195 C114.69339739 31.2293003 121.96616422 27.30650306 129.21875 23.34375 C130.12987549 22.84609131 131.04100098 22.34843262 131.97973633 21.83569336 C135.86135238 19.71165662 139.73702419 17.57907359 143.59375 15.41015625 C173.26894371 -1.09701399 173.26894371 -1.09701399 186.59375 0.65625 C189.46404869 2.45018668 191.08506638 3.63888276 192.59375 6.65625 C192.72364891 9.51728295 192.79319772 12.3550569 192.81835938 15.2175293 C192.82974945 16.10390579 192.84113953 16.99028229 192.85287476 17.90351868 C192.96352393 27.17832239 193.01095665 36.45392332 193.05371094 45.72924805 C193.07598764 50.13036072 193.11775726 54.53062565 193.17675781 58.93139648 C193.24784737 64.24412716 193.28454339 69.55605983 193.29682922 74.86924171 C193.30722988 76.89267494 193.32965427 78.91608404 193.36442566 80.93924522 C193.41066369 83.77643995 193.41262886 86.61050967 193.40429688 89.44799805 C193.42789276 90.27995697 193.45148865 91.11191589 193.47579956 91.96908569 C193.40756031 96.78336765 192.60918621 99.13991381 189.1661377 102.595047 C187.98513231 103.6267637 186.79544979 104.64871306 185.59375 105.65625 C184.40855123 106.97313753 183.23711369 108.30288074 182.09375 109.65625 C179.31135668 112.88581367 176.38355571 115.88947653 173.34375 118.875 C171.51132513 120.74014674 169.80021865 122.67552746 168.09375 124.65625 C165.31135668 127.88581367 162.38355571 130.88947653 159.34375 133.875 C157.51132513 135.74014674 155.80021865 137.67552746 154.09375 139.65625 C151.8481706 142.26272609 149.54823488 144.74559521 147.09375 147.15625 C144.80345105 149.40636827 142.66536261 151.70413712 140.59375 154.15625 C136.35676441 159.08656051 131.69386299 163.58692617 127.07324219 168.15283203 C123.85536257 171.3459095 120.73633042 174.53487852 117.84375 178.03125 C111.8977965 185.05269897 103.63801581 192.80594297 94.26171875 194.125 C79.26303476 194.25966832 72.3293821 187.11900155 61.92919922 177.08569336 C59.24023186 174.43597199 56.56984343 171.76896638 53.90625 169.09375 C53.00841797 168.19978516 52.11058594 167.30582031 51.18554688 166.38476562 C46.71562467 161.90829408 42.40928702 157.37006495 38.28979492 152.57055664 C35.22042647 149.10619532 31.8967073 145.89593225 28.59375 142.65625 C23.96525901 138.11642742 19.53998154 133.50638162 15.30859375 128.59375 C12.54489759 125.47121403 9.57225664 122.57201648 6.59375 119.65625 C2.29462642 115.40690574 -1.91611223 111.15573413 -5.78125 106.5 C-7.52955833 104.42142289 -7.52955833 104.42142289 -10.46028137 102.11219788 C-13.65291898 98.90641451 -14.12066094 96.50176372 -14.20831299 92.06336975 C-14.19459656 91.22317795 -14.18088013 90.38298615 -14.16674805 89.51733398 C-14.17565567 88.61740723 -14.18456329 87.71748047 -14.19374084 86.7902832 C-14.21498539 83.82689077 -14.1927395 80.86568193 -14.16796875 77.90234375 C-14.16947156 75.83781207 -14.17290254 73.77328098 -14.17817688 71.70875549 C-14.1825054 67.38700914 -14.16569049 63.06600972 -14.13354492 58.74438477 C-14.09373946 53.20684413 -14.10307527 47.67070196 -14.12777996 42.13311672 C-14.14196559 37.87193855 -14.13187464 33.61108678 -14.11426735 29.34993172 C-14.1084207 27.30820559 -14.10971522 25.26644602 -14.11829185 23.22472954 C-14.12628849 20.37098875 -14.10203085 17.51929461 -14.0690918 14.66577148 C-14.07764191 13.82355545 -14.08619202 12.98133942 -14.09500122 12.11360168 C-14.00901176 7.79474131 -13.79262798 6.14440379 -11.01985168 2.64125061 C-7.1823662 -0.27327576 -4.70855394 -0.22857058 0 0 Z " fill="#3045CE" transform="translate(38.40625,24.34375)"/>
<path d="M0 0 C1.67255859 0.0009668 1.67255859 0.0009668 3.37890625 0.00195312 C9.6219756 0.0350436 15.68552886 0.36965233 21.875 1.1875 C21.28797275 4.47512166 20.29479146 6.15867721 17.98828125 8.55078125 C17.38685303 9.18250244 16.7854248 9.81422363 16.16577148 10.46508789 C15.51294189 11.13660889 14.8601123 11.80812988 14.1875 12.5 C12.80961489 13.94244002 11.43201715 15.38515459 10.0546875 16.828125 C9.3544043 17.55708984 8.65412109 18.28605469 7.93261719 19.03710938 C4.86188977 22.24628915 1.83689945 25.49723016 -1.1875 28.75 C-2.34486038 29.99106422 -3.50241269 31.23194948 -4.66015625 32.47265625 C-5.23137207 33.08512207 -5.80258789 33.69758789 -6.39111328 34.32861328 C-8.13410087 36.19725697 -9.87751163 38.06550479 -11.62109375 39.93359375 C-12.19931885 40.55314941 -12.77754395 41.17270508 -13.37329102 41.81103516 C-14.53888854 43.05964597 -15.70474048 44.30801932 -16.87084961 45.55615234 C-19.81893609 48.71237299 -22.76182623 51.87316941 -25.6953125 55.04296875 C-31.70509942 61.52675776 -37.77560322 67.91298292 -44.07641602 74.11523438 C-46.75700615 76.76733165 -49.27860547 79.47519331 -51.6875 82.375 C-57.71813553 89.44030339 -65.97429989 97.3222198 -75.45703125 98.65625 C-90.45571524 98.79091832 -97.3893679 91.65025155 -107.78955078 81.61694336 C-110.47851814 78.96722199 -113.14890657 76.30021638 -115.8125 73.625 C-116.71033203 72.73103516 -117.60816406 71.83707031 -118.53320312 70.91601562 C-123.00312533 66.43954408 -127.30946298 61.90131495 -131.42895508 57.10180664 C-134.49832353 53.63744532 -137.8220427 50.42718225 -141.125 47.1875 C-145.76891083 42.63255298 -150.20679462 38.00620803 -154.45068359 33.07568359 C-157.45038315 29.69282032 -160.73853475 26.60283684 -164.02539062 23.50195312 C-167.0883479 20.52527634 -168.58836251 18.10685877 -170.125 14.1875 C-172.50303613 11.52219852 -172.50303613 11.52219852 -175.25 9 C-176.90981059 7.43187867 -178.5442709 5.83530801 -180.125 4.1875 C-180.125 3.5275 -180.125 2.8675 -180.125 2.1875 C-155.93311703 -2.28849169 -129.3929571 0.70962193 -108.625 14.1875 C-97.79659889 22.03742892 -88.13057467 31.75735185 -81.125 43.1875 C-77.32765737 41.92171912 -76.33591952 40.25277709 -73.875 37.125 C-73.07320313 36.12597656 -72.27140625 35.12695312 -71.4453125 34.09765625 C-70.29675781 32.65712891 -70.29675781 32.65712891 -69.125 31.1875 C-51.68744509 9.44868154 -27.50501219 -0.30418814 0 0 Z " fill="#CBCFD9" transform="translate(208.125,119.8125)"/>
<path d="M0 0 C7.75257178 1.41568702 14.61372824 5.11979048 21.59375 8.65625 C22.57166504 9.14915527 23.54958008 9.64206055 24.55712891 10.14990234 C35.94509157 15.92144378 47.19711518 21.92159213 58.32006836 28.18774414 C63.84776303 31.28715371 69.46948488 34.15396971 75.15454102 36.95239258 C80.05816669 39.36882617 84.86074439 41.92162454 89.59375 44.65625 C88.96097188 48.87477079 86.57376892 52.12505067 84.34375 55.65625 C75.00279118 70.84340209 70.32752881 85.67165723 73.2109375 103.46484375 C75.11700129 111.43488925 78.14053585 118.37602118 82.0390625 125.5546875 C82.941926 127.22853555 83.7746962 128.93983494 84.59375 130.65625 C84.26375 131.31625 83.93375 131.97625 83.59375 132.65625 C82.91570312 131.89441406 82.23765625 131.13257813 81.5390625 130.34765625 C65.17891935 112.1236243 47.76972385 99.37306092 22.59375 97.65625 C11.60330631 97.26070348 0.58657551 97.46550423 -10.40625 97.65625 C-9.30190934 98.92806376 -8.19616649 100.19866003 -7.08984375 101.46875 C-6.47423584 102.17644531 -5.85862793 102.88414063 -5.22436523 103.61328125 C-3.04119896 106.06644835 -0.76314501 108.37077605 1.59375 110.65625 C1.26375 111.64625 0.93375 112.63625 0.59375 113.65625 C0.00207031 112.99238281 -0.58960938 112.32851562 -1.19921875 111.64453125 C-1.98941406 110.76152344 -2.77960937 109.87851563 -3.59375 108.96875 C-4.37105469 108.09863281 -5.14835937 107.22851562 -5.94921875 106.33203125 C-8.31270666 103.62407824 -8.31270666 103.62407824 -11.01937866 101.55310059 C-14.30996976 97.55944136 -14.11352532 94.65821134 -14.05322266 89.63085938 C-14.06636505 88.28118828 -14.06636505 88.28118828 -14.07977295 86.9042511 C-14.1017452 83.93567408 -14.08722184 80.96859165 -14.0703125 78 C-14.07368126 75.93403844 -14.07853437 73.86807881 -14.08480835 71.80212402 C-14.09217674 67.47449861 -14.08147496 63.14738956 -14.05810547 58.81982422 C-14.02961804 53.27444101 -14.04602214 47.73026772 -14.07596779 42.18492889 C-14.09404146 37.91948338 -14.08828234 33.65432441 -14.07532883 29.38887024 C-14.07199502 27.34434363 -14.07608097 25.29979096 -14.08772659 23.2552948 C-14.10043621 20.39670986 -14.08105665 17.54008003 -14.05322266 14.68164062 C-14.06334381 13.83785355 -14.07346497 12.99406647 -14.08389282 12.12471008 C-14.0059408 7.8002381 -13.79580807 6.14878816 -11.02084351 2.64025879 C-7.18235164 -0.27246993 -4.70846157 -0.2285661 0 0 Z " fill="#6478E5" transform="translate(38.40625,24.34375)"/>
<path d="M0 0 C1.67255859 0.0009668 1.67255859 0.0009668 3.37890625 0.00195312 C9.6219756 0.0350436 15.68552886 0.36965233 21.875 1.1875 C21.28797275 4.47512166 20.29479146 6.15867721 17.98828125 8.55078125 C17.08613892 9.49836304 17.08613892 9.49836304 16.16577148 10.46508789 C15.51294189 11.13660889 14.8601123 11.80812988 14.1875 12.5 C12.80961489 13.94244002 11.43201715 15.38515459 10.0546875 16.828125 C9.3544043 17.55708984 8.65412109 18.28605469 7.93261719 19.03710938 C4.86188977 22.24628915 1.83689945 25.49723016 -1.1875 28.75 C-2.34486038 29.99106422 -3.50241269 31.23194948 -4.66015625 32.47265625 C-5.51697998 33.39135498 -5.51697998 33.39135498 -6.39111328 34.32861328 C-8.13410087 36.19725697 -9.87751163 38.06550479 -11.62109375 39.93359375 C-12.19931885 40.55314941 -12.77754395 41.17270508 -13.37329102 41.81103516 C-14.53888854 43.05964597 -15.70474048 44.30801932 -16.87084961 45.55615234 C-19.81893609 48.71237299 -22.76182623 51.87316941 -25.6953125 55.04296875 C-31.70509942 61.52675776 -37.77560322 67.91298292 -44.07641602 74.11523438 C-46.75700615 76.76733165 -49.27860547 79.47519331 -51.6875 82.375 C-57.54662123 89.23936262 -65.9863265 97.62740205 -75.3359375 98.48046875 C-76.38007813 98.44566406 -77.42421875 98.41085938 -78.5 98.375 C-79.55960938 98.34792969 -80.61921875 98.32085937 -81.7109375 98.29296875 C-82.50757812 98.25816406 -83.30421875 98.22335938 -84.125 98.1875 C-80.375 96.1875 -80.375 96.1875 -78.125 96.1875 C-77.414999 94.87672893 -76.76460014 93.5340266 -76.125 92.1875 C-75.58875 91.115 -75.0525 90.0425 -74.5 88.9375 C-70.33997655 77.43876852 -73.30776343 64.33750372 -77.125 53.1875 C-77.57230469 52.38054687 -78.01960937 51.57359375 -78.48046875 50.7421875 C-79.76451309 48.36692459 -80.0827238 46.87803762 -80.125 44.1875 C-79.21508789 42.43725586 -79.21508789 42.43725586 -77.84765625 40.77734375 C-77.34621094 40.16511963 -76.84476563 39.55289551 -76.328125 38.92211914 C-74.20860858 36.51968513 -72.01586446 34.20350495 -69.77392578 31.9152832 C-68.11492353 30.17694164 -66.56863837 28.37813743 -65.02734375 26.53515625 C-48.69266484 7.28825888 -24.53140262 -0.27130189 0 0 Z " fill="#96A1B4" transform="translate(208.125,119.8125)"/>
<path d="M0 0 C6.28494258 1.96645443 12.14254894 5.03229599 18 8 C18.97791504 8.49290527 19.95583008 8.98581055 20.96337891 9.49365234 C32.35134157 15.26519378 43.60336518 21.26534213 54.72631836 27.53149414 C60.25401303 30.63090371 65.87573488 33.49771971 71.56079102 36.29614258 C76.46441669 38.71257617 81.26699439 41.26537454 86 44 C85.36722188 48.21852079 82.98001892 51.46880067 80.75 55 C71.40904118 70.18715209 66.73377881 85.01540723 69.6171875 102.80859375 C71.52325129 110.77863925 74.54678585 117.71977118 78.4453125 124.8984375 C79.348176 126.57228555 80.1809462 128.28358494 81 130 C80.67 130.66 80.34 131.32 80 132 C78.90539593 130.84390132 77.82499002 129.67435884 76.75 128.5 C76.14671875 127.8503125 75.5434375 127.200625 74.921875 126.53125 C73.2906103 124.38275504 72.22449843 122.54619146 71.0703125 120.140625 C69.14798888 116.14753577 66.81122476 112.76066056 64.125 109.25 C59.65731069 103.28442409 55.3227503 97.24046387 51.0625 91.125 C50.47049805 90.27607178 49.87849609 89.42714355 49.26855469 88.55249023 C48.08299522 86.8523358 46.89760916 85.15206044 45.71240234 83.45166016 C43.11266786 79.72959946 40.49533588 76.02007456 37.875 72.3125 C37.38781494 71.6230127 36.90062988 70.93352539 36.39868164 70.22314453 C35.42182597 68.84090269 34.44485714 67.45874081 33.46777344 66.07666016 C31.47881039 63.26260166 29.49164676 60.44727504 27.50463867 57.63183594 C26.50237612 56.21178781 25.49993499 54.7918657 24.49731445 53.37207031 C22.00689439 49.84522401 19.51871538 46.31683792 17.03515625 42.78515625 C11.77254363 35.30629714 6.47620259 27.85329747 1.125 20.4375 C0.60172119 19.71183838 0.07844238 18.98617676 -0.46069336 18.23852539 C-3.53770671 13.98427116 -6.67370176 9.7890843 -9.90283203 5.64868164 C-11 4 -11 4 -11 2 C-12.32 3.32 -13.64 4.64 -15 6 C-15.66 5.67 -16.32 5.34 -17 5 C-12.55536069 -1.34948472 -7.3106994 -1.33499728 0 0 Z " fill="#4E61D4" transform="translate(42,25)"/>
<path d="M0 0 C3.26460973 1.80412643 4.88929795 2.83394693 7 6 C7.18478127 8.96056831 7.25210721 11.8257564 7.22705078 14.78588867 C7.22734283 15.68365524 7.22763489 16.58142181 7.22793579 17.50639343 C7.22654125 20.47701649 7.21097415 23.44738945 7.1953125 26.41796875 C7.19158281 28.4763424 7.18873563 30.53471782 7.18673706 32.59309387 C7.17909712 38.01334527 7.15944549 43.43348965 7.1373291 48.85369873 C7.11687847 54.38357088 7.10773702 59.91346031 7.09765625 65.44335938 C7.07619998 76.29561996 7.04205964 87.14780108 7 98 C6.67 97.34 6.34 96.68 6 96 C-36.47486934 95.00645433 -36.47486934 95.00645433 -73 115 C-73.83789062 115.73089844 -74.67578125 116.46179688 -75.5390625 117.21484375 C-77.70900475 119.12613963 -79.86153201 121.05364024 -82 123 C-82.66 122.67 -83.32 122.34 -84 122 C-83.67427002 121.55422607 -83.34854004 121.10845215 -83.01293945 120.64916992 C-76.71572707 112.01672755 -70.49982398 103.34232893 -64.5 94.5 C-59.70047033 87.42784775 -54.76511714 80.47157471 -49.73657227 73.56079102 C-45.76421843 68.09002473 -41.90445395 62.55190565 -38.09326172 56.96801758 C-34.77550185 52.11163004 -31.40105168 47.29837029 -28 42.5 C-22.25539378 34.38610234 -16.58967196 26.22140872 -11 18 C-10.52691406 17.30471191 -10.05382812 16.60942383 -9.56640625 15.89306641 C-8.16449745 13.82772041 -6.76858327 11.75847058 -5.375 9.6875 C-4.73570557 8.74463135 -4.73570557 8.74463135 -4.08349609 7.78271484 C-2.35457744 5.19895384 -0.98852796 2.96558389 0 0 Z " fill="#1D33BF" transform="translate(224,25)"/>
<path d="M0 0 C0.33 0 0.66 0 1 0 C1.33 29.37 1.66 58.74 2 89 C4.31 89 6.62 89 9 89 C9 89.33 9 89.66 9 90 C7.02 90 5.04 90 3 90 C6.86364295 94.48717034 10.74790208 98.87675353 15 103 C14.67 103.99 14.34 104.98 14 106 C13.40832031 105.33613281 12.81664062 104.67226562 12.20703125 103.98828125 C11.41683594 103.10527344 10.62664063 102.22226563 9.8125 101.3125 C9.03519531 100.44238281 8.25789063 99.57226562 7.45703125 98.67578125 C5.09242518 95.96712819 5.09242518 95.96712819 2.38191223 93.89033508 C-0.89560764 89.91322352 -0.67557346 87.08059076 -0.56762695 82.07885742 C-0.56835709 81.19055237 -0.56908722 80.30224731 -0.56983948 79.38702393 C-0.56636394 76.45921154 -0.5275045 73.53300221 -0.48828125 70.60546875 C-0.47895301 68.57238128 -0.47183695 66.53928255 -0.46684265 64.50617981 C-0.44777387 59.16131428 -0.39867359 53.81713071 -0.34332275 48.47253418 C-0.292128 43.0162885 -0.26932809 37.55993237 -0.24414062 32.10351562 C-0.19055515 21.40204452 -0.10524337 10.70107902 0 0 Z " fill="#6572B6" transform="translate(25,32)"/>
<path d="M0 0 C3.58644919 0.55892715 4.90108105 1.68378102 7.125 4.5 C11.29735524 9.51773441 16.08382641 13.72678674 21 18 C13.76250461 18 6.72236652 7.84067264 1.90625 3.0390625 C0 1 0 1 0 0 Z " fill="#7D8186" transform="translate(94,194)"/>
<path d="M0 0 C0.99 0.33 1.98 0.66 3 1 C0.69 3.31 -1.62 5.62 -4 8 C-4.66 7.67 -5.32 7.34 -6 7 C-4.02 4.69 -2.04 2.38 0 0 Z " fill="#585D68" transform="translate(154,201)"/>
<path d="M0 0 C0.99 0.33 1.98 0.66 3 1 C0.69 3.31 -1.62 5.62 -4 8 C-4.33 7.01 -4.66 6.02 -5 5 C-3.625 3.5 -3.625 3.5 -2 2 C-1.34 2 -0.68 2 0 2 C0 1.34 0 0.68 0 0 Z " fill="#5F6671" transform="translate(172,182)"/>
<path d="M0 0 C0.99 0.33 1.98 0.66 3 1 C0.69 3.31 -1.62 5.62 -4 8 C-4 4.09161134 -2.49432124 2.88405893 0 0 Z " fill="#636A76" transform="translate(186,167)"/>
<path d="M0 0 C2.3125 0.1875 2.3125 0.1875 4 1 C1 3 1 3 -1 3 C-1.99 4.485 -1.99 4.485 -3 6 C-3.66 5.67 -4.32 5.34 -5 5 C-2.75 2.4375 -2.75 2.4375 0 0 Z " fill="#4555B2" transform="translate(30,25)"/>
</svg>
